<?xml version="1.0" encoding="UTF-8"?>
<svg id="Layer_1" data-name="Layer 1" xmlns="http://www.w3.org/2000/svg" viewBox="0 0 960 960">
  <defs>
    <style>
      .cls-1 {
        fill: #2b3a67;
        stroke-width: 0px;
      }
    </style>
  </defs>
  <g>
    <path class="cls-1" d="M282.77,413.83h-28.59c-.6,0-1.01.5-1.01,1.01v81.31c0,.6-.5,1.01-1.01,1.01h-18.49c-.6,0-1.01-.5-1.01-1.01v-81.26c0-.6-.5-1.01-1.01-1.01h-24.83c-.5,0-.9-.3-1.01-.8l-3.07-14.62c-.1-.6.3-1.21,1.01-1.21h79.25c.6,0,1.01.5,1.01,1.01v14.57c-.1.5-.6,1.01-1.21,1.01h-.05Z"/>
    <path class="cls-1" d="M310.15,428.25c0,.9-.6.7,0,0,5.03-5.03,12.76-6.73,19.9-6.73,16.13,0,24.32,9.4,24.52,28.09v46.58c0,.6-.5,1.01-1.01,1.01h-17.79c-.6,0-1.01-.5-1.01-1.01v-45.98c0-4.27-.9-7.44-2.76-9.5s-4.92-3.07-9.2-3.07c-5.73,0-9.9,2.16-12.46,6.43-.1.2-.1.4-.1.6v51.46c0,.6-.5,1.01-1.01,1.01h-17.79c-.6,0-1.01-.5-1.01-1.01v-93.92c0-.5.3-.9.8-1.01l17.79-3.82c.6-.1,1.21.3,1.21,1.01l-.1,29.8h0v.05Z"/>
    <path class="cls-1" d="M565.44,421.82c0,.6.5,1.01,1.01,1.01h18.19c.7,0,1.11.6,1.01,1.21l-3.17,17.34c-.1.5-.5.9-1.01.9h-15.03c-.6,0-1.01.5-1.01,1.01v31.16c0,2.76.5,4.67,1.51,5.93,1.01,1.21,3.07,1.86,6.03,1.86,1.76,0,3.27-.1,4.67-.3.6-.1,1.21.4,1.21,1.01v13.07c0,.5-.3.9-.7,1.01-3.67,1.01-7.44,1.51-11.26,1.51-13.97,0-21.06-7.04-21.36-21.16v-34.12c0-.6-.5-1.01-1.01-1.01h-8.79c-.6,0-1.01-.5-1.01-1.01v-17.34c0-.6.5-1.01,1.01-1.01h8.79c.6,0,1.01-.5,1.01-1.01v-20.3c0-.5.4-.9.9-1.01l17.79-3.17c.6-.1,1.21.4,1.21,1.01v23.42h-.1.1Z"/>
    <path class="cls-1" d="M594.74,496.24v-98.04c0-.6.5-1.01,1.01-1.01h27.19c8.69,0,16.43,1.96,23.07,5.73,6.63,3.87,11.86,9.3,15.53,16.43,3.67,7.14,5.53,15.33,5.53,24.52v6.43c0,9.4-1.86,17.69-5.43,24.83-3.67,7.14-8.89,12.56-15.63,16.33-6.73,3.77-14.62,5.73-23.57,5.83h-26.63c-.6,0-1.11-.5-1.01-1.01h0l-.05-.05ZM607.9,409.05v76.38c0,.6.5,1.01,1.01,1.01h12.86c10.2,0,18.09-3.17,23.77-9.5,5.63-6.33,8.49-15.33,8.49-27.04v-5.83c0-11.36-2.66-20.2-8.09-26.53-5.33-6.33-12.86-9.5-22.76-9.6h-14.27c-.6,0-1.01.5-1.01,1.11h0Z"/>
    <path class="cls-1" d="M672.53,459.36c0-7.24,1.41-13.87,4.27-19.7s6.83-10.3,11.96-13.47,10.9-4.82,17.44-4.82c10.1,0,18.39,3.47,24.62,10.5,6.23,7.04,9.4,16.33,9.4,27.99v.9c0,7.24-1.41,13.77-4.17,19.5s-6.73,10.2-11.96,13.47c-5.13,3.17-11.01,4.82-17.79,4.82-10.1,0-18.29-3.47-24.52-10.5-6.23-7.04-9.4-16.33-9.4-27.89l.1-.8h.05ZM685.29,460.86c0,8.29,1.96,14.93,5.73,19.9,3.87,5.03,9,7.44,15.33,7.44s11.66-2.56,15.43-7.54c3.77-5.13,5.73-12.16,5.73-21.26,0-8.19-1.96-14.82-5.83-19.8-3.87-5.13-9-7.54-15.43-7.54s-11.36,2.56-15.23,7.44c-3.77,4.92-5.73,12.06-5.73,21.36h0Z"/>
    <path class="cls-1" d="M811.03,476.14l13.17-52.36c.1-.5.5-.8,1.01-.8h10.5c.7,0,1.21.7,1.01,1.31l-21.06,72.31c-.1.4-.5.7-1.01.7h-8.79c-.5,0-.9-.3-1.01-.7l-16.83-52.46c-.3-1.01-1.76-1.01-2.06,0l-16.33,52.46c-.1.4-.5.7-1.01.7h-8.79c-.5,0-.9-.3-1.01-.7l-20.96-72.31c-.2-.7.3-1.31,1.01-1.31h10.4c.5,0,.9.3,1.01.8l13.47,51.36c.3,1.01,1.76,1.01,2.06,0l16.03-51.46c.1-.4.5-.7,1.01-.7h8.69c.5,0,.9.3,1.01.7l16.33,52.46c.3,1.01,1.86,1.01,2.06,0h.1Z"/>
    <path class="cls-1" d="M855.85,423.83l.2,5.73c0,.9,1.21,1.31,1.86.7,5.43-5.83,12.26-8.79,20.5-8.79,15.73,0,23.67,8.89,23.77,26.63v48.09c0,.6-.5,1.01-1.01,1.01h-10.6c-.6,0-1.01-.5-1.01-1.01v-48.14c-.1-5.43-1.21-9.3-3.67-11.96-2.46-2.56-6.13-3.87-11.26-3.87-4.07,0-7.74,1.11-10.8,3.27s-5.43,5.03-7.14,8.49c-.1.1-.1.3-.1.5v51.66c0,.6-.5,1.01-1.01,1.01h-10.6c-.6,0-1.01-.5-1.01-1.01v-72.21c0-.6.5-1.01,1.01-1.01h10c.4-.1.9.4.9.9h-.05Z"/>
    <path class="cls-1" d="M452.72,423.73c-3.87-1.66-8.89-2.76-15.33-2.76-7.24,0-12.76,1.21-17.14,3.27-10.1,5.03-13.37,14.72-13.37,25.43v19.7c0,17.44,7.64,28.09,29.7,28.59h5.23c6.03,0,12.26-.6,17.99-1.41.6-.2,1.21-.8,1.01-1.41v-.6l-1.41-10.1c-5.63.6-10.5.8-16.13.8-13.57,0-17.79-3.87-17.79-12.26v-5.93h39.9c.8,0,1.21-.6,1.21-1.21v-14.82c-.3-11.96-3.07-22.56-13.87-27.29h0ZM449.96,453.12c0,.8-.6,1.21-1.21,1.21h-23.57v-6.43c0-7.04,3.07-11.76,12.26-11.76,1.01,0,2.06,0,3.07.2,6.83,1.01,9.5,5.63,9.5,11.66v5.13h-.05Z"/>
    <path class="cls-1" d="M495.39,420.96c-6.53,0-13.47.5-20.1,1.51-.6.2-1.31.8-1.01,1.51l1.51,11.46c.2.6.6,1.31,1.51,1.31,6.13-.6,10.1-.8,16.33-.8,13.87,0,18.19,3.97,18.19,12.56v5.13c0,.8-.6,1.31-1.31,1.31h-17.54c-15.43,0-24.52,7.74-24.52,21.96,0,13.07,10.1,22.46,25.43,22.46,9.6,0,13.37-1.51,16.53-4.47.8-.8,2.36-.2,2.36.8v1.01c0,.8.6,1.31,1.31,1.31h15.43c.8,0,1.31-.6,1.31-1.31v-47.74c.2-18.9-13.17-27.99-35.43-27.99h0ZM511.92,469.96c0,9.5-6.33,15.83-16.53,15.83-7.74,0-11.86-2.96-11.86-9.1,0-6.73,4.27-9.5,11.86-9.5h15.03c.8,0,1.31.6,1.31,1.31v1.41h.2v.05Z"/>
    <path class="cls-1" d="M402.47,438.35c-6.83,2.96-12.36,6.23-18.59,10.2-.5.2-.6.6-.6,1.01v47.19c0,.8-.6,1.31-1.31,1.31h-16.43c-.8,0-1.31-.6-1.31-1.31v-70.96c0-.6.5-1.31,1.01-1.31l13.67-2.36c.8-.2,1.51.5,1.51,1.01l.6,4.92c.2,1.01,1.31,1.51,2.16.8,4.27-2.86,11.11-6.33,16.63-8.39.8-.2,1.66.2,1.66,1.01l1.51,15.03c.3.9-.1,1.41-.5,1.86h0Z"/>
    <path class="cls-1" d="M637.1,531.17l-.1.1v-10.9c0-.3-.2-.5-.5-.4l-3.07.5s-.3.2-.3.4v31.96s.1.4.3.4c2.66.6,6.03.8,8.19.8,8.89,0,10.1-4.17,10.1-8.79v-8.39c0-4.82-2.36-7.24-6.93-7.24-3.37-.1-6.13.7-7.64,1.51h0l-.05.05ZM647.7,536.69v8.69c0,3.27-1.01,5.23-5.83,5.23-1.66,0-3.17-.1-4.82-.3h-.1v-15.53h.1c1.41-.7,4.37-1.86,6.63-1.86,2.76,0,3.97,1.11,3.97,3.77h.05Z"/>
    <path class="cls-1" d="M656.8,529.96h-2.96c-.3,0-.5.3-.4.5l7.44,22.66s.2.3.4.3h.9c.3,0,.5.3.4.5l-2.96,8.49c-.1.3.1.5.4.5h2.76s.3-.1.4-.3l3.27-9.2,7.74-22.97c.1-.3-.1-.5-.4-.5h-2.96s-.3.1-.4.3l-6.23,19.1c-.1.4-.7.4-.8,0l-6.13-19.1s-.3-.3-.5-.3h.05Z"/>
    <path class="cls-1" d="M692.98,538.2v7.04c0,5.93,2.96,8.59,9.4,8.59,2.76,0,5.83-.5,7.94-1.21.2-.1.3-.3.3-.5l-.4-2.26c-.1-.3-.3-.4-.5-.3-2.66.7-5.03,1.01-7.04,1.01-5.03,0-5.83-1.76-5.83-5.33v-1.66c0-.3.2-.4.4-.4h13.47c.3,0,.4-.2.4-.4v-4.37c0-5.93-2.86-8.79-9-8.79-6.13-.1-9.2,2.76-9.2,8.59h.05ZM696.85,538c0-3.67,1.76-5.23,5.43-5.23s5.13,1.51,5.13,5.23v1.66c0,.3-.2.4-.4.4h-9.7c-.3,0-.4-.2-.4-.4v-1.66h-.05Z"/>
    <path class="cls-1" d="M722.38,540.06c-4.07-1.01-4.17-1.41-4.17-4.17,0-2.26.6-3.07,4.17-3.07,1.76,0,4.07.2,6.13.6.3.1.5-.1.5-.4l.2-2.36s-.1-.4-.3-.5c-1.96-.5-4.17-.7-6.33-.7-6.03,0-8.19,1.76-8.19,6.33s.5,6.03,6.43,7.44c4.82,1.11,5.13,1.41,5.13,4.07s-.6,3.27-4.57,3.27c-1.86,0-4.27-.3-6.33-.8-.3-.1-.5.1-.5.3l-.4,2.16s.1.4.3.5c1.96.7,4.92,1.11,7.14,1.11,6.93,0,8.19-2.26,8.19-6.73,0-4.92-.9-5.53-7.34-7.04h-.05Z"/>
    <path class="cls-1" d="M541.32,553.23l-4.27-22.87c-.1-.3.1-.5.4-.5h4.82s.4.1.4.3l2.56,13.77c.1.5.7.5.8.1l4.17-13.87s.2-.3.4-.3h5.63s.3.1.4.3l4.17,13.87c.1.4.7.4.8-.1l2.56-13.77s.2-.3.4-.3h4.82c.3,0,.5.3.4.5l-4.27,22.87s-.2.3-.4.3h-6.23s-.3-.1-.4-.3l-4.57-15.33c-.1-.4-.7-.4-.8,0l-4.57,15.33s-.2.3-.4.3h-6.33s-.4-.1-.4-.3h-.1Z"/>
    <path class="cls-1" d="M534.38,549.16c-2.16,0-2.86-.9-2.86-3.57v-23.87c0-.3-.2-.5-.5-.4l-5.23.7s-.3.2-.3.4v23.77c0,5.33,3.27,7.74,7.74,7.74.5,0,2.06-.1,2.86-.1.2,0,.4-.2.4-.4v-3.77c0-.3-.2-.4-.5-.4-.5-.1-1.31-.1-1.66-.1h.05Z"/>
    <path class="cls-1" d="M607.3,534.94c-2.16.9-3.87,1.96-5.83,3.17-.1.1-.2.2-.2.3v14.62c0,.3-.2.4-.4.4h-5.23c-.3,0-.4-.2-.4-.4v-21.96s.1-.4.3-.4l4.27-.7c.3-.1.5.1.5.3l.2,1.51c.1.3.4.5.7.3,1.31-.9,3.47-1.96,5.23-2.56.3-.1.5.1.5.3l.5,4.67s0,.3-.2.4h0l.05.05Z"/>
    <path class="cls-1" d="M687.05,550.67c-2.46,0-2.56-1.01-2.56-2.66v-14.42c0-.3.2-.4.4-.4h5.63s.4-.1.4-.4l.3-2.36c0-.3-.2-.5-.4-.5h-5.93c-.3,0-.4-.2-.4-.4v-5.43c0-.3-.2-.5-.5-.4l-3.07.5s-.3.2-.3.4v5.03c0,.3-.2.4-.4.4h-3.37c-.3,0-.4.2-.4.4v2.36c0,.3.2.4.4.4h3.37c.3,0,.4.2.4.4v15.03c0,3.77,1.66,5.33,5.83,5.33.9,0,1.86-.1,2.86-.3.2-.1.3-.2.3-.4v-2.36c0-.3-.3-.5-.5-.4-.7.1-1.41.2-2.06.2h0Z"/>
    <path class="cls-1" d="M624.74,530.16c-1.21-.5-2.86-.8-5.03-.8-2.36,0-4.17.4-5.63,1.01-3.27,1.66-4.37,4.67-4.37,8.19v6.33c0,5.53,2.46,9,9.7,9.1h1.66c1.96,0,3.97-.2,5.83-.5.2-.1.4-.3.3-.5v-.2l-.5-3.27c-1.86.2-3.37.3-5.23.3-4.37,0-5.83-1.21-5.83-3.87v-1.96h12.97c.3,0,.4-.2.4-.4v-4.67c.1-3.77-.8-7.24-4.27-8.69v-.05ZM623.83,539.56c0,.3-.2.4-.4.4h-7.64v-2.06c0-2.26,1.01-3.77,3.97-3.77.3,0,.7,0,1.01.1,2.26.3,3.07,1.86,3.07,3.67v1.66h0Z"/>
    <path class="cls-1" d="M477.4,557.5h.1c.3,0,.5-.2.5-.5,0-.2-.1-.5-.4-.5h-.2l-.3-.1c-5.43-1.01-9.5-5.83-9.5-11.46,0-2.36.7-4.67,2.06-6.43.2-.3.5-.5.9-.1l8.59,8.59s.2.1.3.1.3-.1.3-.1l8.69-8.59c.3-.3.6-.3.8.1,1.21,1.86,2.06,4.07,2.06,6.43,0,2.96-1.11,5.73-3.07,7.74-1.31,1.34-1.37,1.41-.2.2,1.76-1.81-.1.1-.1.2,0,.3.2.5.5.5h.1s.1-.1.2-.1c11.56-4.82,10.9-16.03,10.9-16.03,0-6.43-3.07-12.16-7.84-15.83-.2-.1-.5-.1-.7.1l-11.36,11.26s-.5.2-.7,0l-11.46-11.26s-.5-.2-.7-.1c-4.67,3.67-7.74,9.3-7.74,15.83.1,10.5,7.94,19,18.29,20h0l-.05.05Z"/>
    <path class="cls-1" d="M510.06,529.31c-2.16,0-4.27.1-6.43.5-.2.1-.4.3-.3.5l.5,3.57s.2.4.5.4c1.96-.2,3.17-.3,5.23-.3,4.37,0,5.83,1.21,5.83,3.87v1.66c0,.3-.2.4-.4.4h-5.63c-4.92,0-7.74,2.46-7.74,6.83,0,4.07,3.17,7.04,8.09,7.04,3.07,0,4.27-.5,5.23-1.41.3-.3.7-.1.7.3v.3c0,.3.2.4.4.4h4.92c.3,0,.4-.2.4-.4v-14.93c0-5.93-4.17-8.79-11.26-8.79h0l-.05.05ZM515.39,544.74c0,2.96-2.06,5.03-5.23,5.03-2.46,0-3.77-.9-3.77-2.86,0-2.16,1.31-2.96,3.77-2.96h4.82c.3,0,.4.2.4.4v.4h0Z"/>
    <path class="cls-1" d="M579.71,529.31c-2.06,0-4.27.1-6.43.5-.2.1-.4.3-.3.5l.5,3.57s.2.4.5.4c1.96-.2,3.27-.3,5.23-.3,4.37,0,5.83,1.21,5.83,3.87v1.66c0,.3-.2.4-.4.4h-5.63c-4.92,0-7.84,2.46-7.84,6.83,0,4.07,3.27,7.04,8.09,7.04,3.07,0,4.27-.5,5.23-1.41.3-.3.7-.1.7.3v.3c0,.3.2.4.4.4h4.92c.3,0,.4-.2.4-.4v-14.93c.2-5.93-4.07-8.79-11.11-8.79h0l-.1.05ZM585.04,544.74c0,2.96-2.06,5.03-5.23,5.03-2.46,0-3.77-.9-3.77-2.86,0-2.16,1.31-2.96,3.77-2.96h4.82c.3,0,.4.2.4.4v.4h0Z"/>
    <path class="cls-1" d="M240.91,540.66h-8.19v-3.27h8.19c1.51,0,2.86-.2,3.77-.7s1.66-1.21,2.16-2.06c.4-.9.7-1.96.7-3.07,0-1.01-.2-2.06-.7-2.96-.4-.9-1.11-1.66-2.16-2.26-.9-.6-2.26-.8-3.77-.8h-7.14v27.19h-3.97v-30.45h11.26c2.26,0,4.27.4,5.83,1.21,1.66.8,2.76,1.96,3.57,3.27.8,1.41,1.21,2.96,1.21,4.82,0,1.96-.4,3.57-1.21,5.03s-2.06,2.46-3.57,3.17c-1.76.6-3.67.9-5.93.9h-.05Z"/>
    <path class="cls-1" d="M254.83,541.57v-.5c0-1.66.2-3.17.7-4.47.5-1.41,1.11-2.66,2.06-3.67.95-1.01,1.96-1.86,3.27-2.46,1.21-.6,2.66-.9,4.27-.9,1.51,0,3.07.3,4.27.9,1.21.6,2.36,1.31,3.27,2.46.9,1.01,1.66,2.26,2.06,3.67.5,1.41.7,2.86.7,4.47v.5c0,1.66-.2,3.17-.7,4.47-.5,1.41-1.11,2.66-2.06,3.67-.95,1.01-1.96,1.86-3.27,2.46-1.21.6-2.66.8-4.27.8s-2.96-.3-4.27-.8c-1.21-.6-2.36-1.41-3.27-2.46s-1.51-2.26-2.06-3.67c-.5-1.41-.7-2.86-.7-4.47ZM258.59,541.07v.5c0,1.11.1,2.16.4,3.17.3,1.01.6,1.86,1.21,2.66.5.8,1.21,1.31,2.06,1.86.8.4,1.76.6,2.86.6s1.96-.2,2.76-.6,1.41-1.01,2.06-1.86c.5-.8.9-1.66,1.21-2.66s.4-2.06.4-3.17v-.5c0-1.11-.1-2.16-.4-3.17-.3-1.01-.7-1.86-1.21-2.66s-1.21-1.41-2.06-1.86c-.8-.4-1.76-.7-2.76-.7s-1.96.2-2.76.7c-.8.4-1.41,1.01-2.06,1.86-.5.8-.9,1.66-1.21,2.66s-.5,2.06-.5,3.17Z"/>
    <path class="cls-1" d="M285.93,548.5l5.83-18.59h2.56l-.5,3.67-5.93,18.9h-2.46l.5-3.97h0ZM281.96,529.91l5.03,18.79.4,3.77h-2.66l-6.53-22.56s3.77,0,3.77,0ZM299.85,548.6l4.67-18.69h3.87l-6.53,22.56h-2.56l.5-3.87h.05ZM294.83,529.91l5.73,18.29.6,4.27h-2.46l-6.13-19-.5-3.67h2.76s0,.1,0,.1Z"/>
    <path class="cls-1" d="M321.71,553.03c-1.51,0-2.96-.3-4.27-.8-1.21-.5-2.36-1.31-3.27-2.26-.9-.9-1.66-2.16-2.16-3.47s-.7-2.76-.7-4.37v-.9c0-1.86.3-3.47.8-4.92.5-1.41,1.21-2.66,2.26-3.67.9-1.01,2.06-1.76,3.17-2.26,1.11-.5,2.46-.8,3.67-.8,1.66,0,2.96.3,4.17.8,1.21.6,2.16,1.31,2.86,2.36.7,1.01,1.31,2.16,1.66,3.47.4,1.31.5,2.76.5,4.37v1.76h-16.83v-3.07h13.07v-.3c0-1.01-.3-1.96-.6-2.96-.3-.9-.9-1.76-1.66-2.36-.8-.6-1.86-.9-3.17-.9-.9,0-1.76.2-2.46.6-.7.4-1.31.9-1.96,1.66-.5.7-.9,1.66-1.21,2.66s-.4,2.26-.4,3.57v.9c0,1.01.1,2.06.4,3.07.3.9.7,1.76,1.31,2.46s1.31,1.21,2.16,1.66,1.86.6,2.86.6c1.31,0,2.56-.3,3.47-.8.9-.6,1.76-1.31,2.46-2.26l2.36,1.86c-.5.7-1.11,1.41-1.86,2.16-.7.7-1.66,1.21-2.76,1.66-1.01.4-2.36.6-3.87.6h0v-.1Z"/>
    <path class="cls-1" d="M338.95,533.53v19.1h-3.87v-22.56h3.77l.1,3.47h0ZM345.98,529.86v3.57c-.3-.1-.6-.1-.9-.1h-.9c-.9,0-1.66.1-2.36.4s-1.21.7-1.76,1.21-.8,1.11-1.11,1.86c-.3.7-.4,1.41-.5,2.26l-1.11.6c0-1.31.1-2.66.4-3.87s.7-2.26,1.21-3.17c.6-.9,1.31-1.66,2.16-2.16.9-.5,1.96-.8,3.17-.8.3,0,.6,0,.9.1.4,0,.7.1.8.1h0Z"/>
    <path class="cls-1" d="M358.55,553.03c-1.51,0-2.96-.3-4.27-.8-1.21-.5-2.36-1.31-3.27-2.26-.9-.9-1.66-2.16-2.06-3.47s-.7-2.76-.7-4.37v-.9c0-1.86.3-3.47.8-4.92.5-1.41,1.21-2.66,2.26-3.67.9-1.01,2.06-1.76,3.17-2.26,1.21-.5,2.46-.8,3.67-.8,1.66,0,3.07.3,4.17.8,1.21.6,2.16,1.31,2.86,2.36.7,1.01,1.31,2.16,1.66,3.47.4,1.31.5,2.76.5,4.37v1.76h-16.83v-3.07h13.07v-.3c0-1.01-.3-1.96-.6-2.96-.3-.9-.9-1.76-1.66-2.36-.8-.6-1.86-.9-3.17-.9-.9,0-1.66.2-2.46.6-.7.4-1.31.9-1.96,1.66-.5.7-.9,1.66-1.21,2.66s-.4,2.26-.4,3.57v.9c0,1.01.1,2.06.4,3.07.3.9.7,1.76,1.31,2.46.6.7,1.31,1.21,2.16,1.66s1.86.6,2.86.6c1.31,0,2.56-.3,3.47-.8s1.76-1.31,2.46-2.26l2.36,1.86c-.5.7-1.11,1.41-1.86,2.16-.7.7-1.66,1.21-2.76,1.66-1.21.4-2.56.6-3.97.6h0v-.1Z"/>
    <path class="cls-1" d="M386.04,548.2v-27.69h3.87v32.06h-3.57s-.3-4.37-.3-4.37ZM370.81,541.47v-.4c0-1.76.2-3.27.6-4.67s1.01-2.66,1.86-3.67c.85-1.01,1.76-1.86,2.86-2.36,1.11-.6,2.36-.8,3.67-.8,1.41,0,2.66.2,3.67.7,1.11.5,1.96,1.21,2.76,2.16.7.9,1.31,2.06,1.76,3.37.4,1.31.7,2.86.9,4.47v1.96c-.1,1.66-.4,3.17-.9,4.47-.4,1.31-1.01,2.46-1.76,3.37-.7.9-1.66,1.66-2.76,2.16-1.01.5-2.36.7-3.77.7-1.31,0-2.56-.3-3.67-.8-1.11-.6-2.06-1.31-2.86-2.46-.8-1.01-1.41-2.26-1.86-3.67-.3-1.21-.5-2.76-.5-4.47h0v-.05ZM374.78,541.07v.4c0,1.11.1,2.16.3,3.17.2,1.01.6,1.86,1.11,2.66.5.7,1.11,1.31,1.86,1.76.7.4,1.66.6,2.66.6,1.21,0,2.36-.3,3.17-.8.8-.5,1.51-1.21,2.06-2.16.5-.9.9-1.86,1.11-2.86v-5.03c-.2-.8-.4-1.51-.7-2.26-.3-.7-.7-1.31-1.21-1.96-.5-.6-1.11-1.01-1.86-1.31-.7-.3-1.51-.5-2.56-.5s-1.96.2-2.76.7c-.7.4-1.31,1.01-1.86,1.86-.5.7-.8,1.66-1.11,2.66-.1.9-.3,1.96-.2,3.07h0Z"/>
    <path class="cls-1" d="M406.54,520.56h3.87v27.69l-.3,4.37h-3.57v-32.06ZM425.74,541.07v.4c0,1.66-.2,3.17-.6,4.57s-.9,2.66-1.76,3.67c-.7,1.01-1.66,1.86-2.76,2.46-1.11.6-2.36.8-3.77.8s-2.66-.2-3.77-.7c-1.01-.5-1.96-1.21-2.76-2.16-.7-.9-1.31-2.06-1.76-3.37-.4-1.31-.7-2.86-.9-4.47v-1.96c.2-1.66.5-3.17.9-4.47s1.01-2.46,1.76-3.37c.7-.9,1.66-1.66,2.76-2.16,1.11-.5,2.36-.7,3.77-.7s2.66.3,3.77.8c1.11.5,2.06,1.31,2.76,2.36s1.31,2.26,1.76,3.67c.4,1.31.6,2.86.6,4.57h0v.05ZM421.87,541.57v-.4c0-1.11-.1-2.16-.3-3.17-.2-1.01-.5-1.86-1.01-2.66s-1.01-1.31-1.86-1.86c-.7-.4-1.66-.7-2.76-.7-1.01,0-1.86.2-2.56.5s-1.31.8-1.86,1.31-.9,1.21-1.21,1.96c-.3.7-.5,1.41-.7,2.26v5.03c.2.9.6,1.96,1.11,2.86s1.21,1.66,2.06,2.26c.9.6,1.96.8,3.17.8,1.01,0,1.96-.2,2.66-.6s1.31-1.01,1.86-1.76.8-1.66,1.01-2.66.4-2.16.4-3.17h0Z"/>
    <path class="cls-1" d="M436.69,550.26l6.33-20.3h4.07l-9.1,26.13c-.2.6-.5,1.11-.8,1.86-.3.6-.8,1.21-1.31,1.86s-1.11,1.01-1.96,1.41c-.7.4-1.66.6-2.66.6-.3,0-.7,0-1.21-.1s-.8-.1-1.01-.2v-3.17h1.01c.9,0,1.66-.1,2.26-.3s1.11-.6,1.51-1.11.8-1.21,1.11-2.16l1.76-4.47h0v-.05ZM432.12,529.96l5.93,17.54,1.01,4.07-2.76,1.41-8.29-23.07h4.07l.05.05Z"/>
    <path class="cls-1" d="M167.89,424.38l-67.79,67.79-67.59-68.44c3.17-6.53,7.24-12.46,12.16-17.64,2.76-3.07,5.83-5.83,9.1-8.39.8-.5,1.76-.5,2.56.2l42.46,42.72c.8.8,1.96.8,2.76,0l42.16-42.72c.5-.8,1.76-.8,2.56-.2,2.46,1.96,4.92,3.97,7.14,6.23,5.83,5.83,10.8,12.76,14.52,20.4l-.05.05Z"/>
    <path class="cls-1" d="M167.89,485.24l-67.79,67.79-67.59-68.44c3.17-6.53,7.24-12.46,12.16-17.69,2.76-3.07,5.83-5.83,9.1-8.39.8-.5,1.76-.5,2.56.2l42.46,42.66c.8.8,1.96.8,2.76,0l42.16-42.66c.5-.8,1.76-.8,2.56-.2,2.46,1.96,4.92,3.97,7.14,6.23,5.83,5.83,10.8,12.76,14.52,20.4l-.05.1Z"/>
  </g>
  <path class="cls-1" d="M908.02,425.59h-3.47v-1.51h8.79v1.51h-3.37v9.7h-1.96v-9.7h0ZM915.35,424.08h2.66l3.17,7.84,3.07-7.84h2.76v11.26h-1.96v-8.79l-3.57,8.79h-.6l-3.67-8.79v8.79h-1.76v-11.26s-.1,0-.1,0Z"/>
</svg>